HIERARCHY
ROOT hip
{
  OFFSET 0 0 0
  CHANNELS 6 Xposition Yposition Zposition Zrotation Yrotation Xrotation
  JOINT abdomen
  {
    OFFSET 0 20.6881 -0.73152
    CHANNELS 3 Zrotation Xrotation Yrotation
    JOINT chest
    {
      OFFSET 0 11.7043 -0.48768
      CHANNELS 3 Zrotation Xrotation Yrotation
      JOINT neck
      {
        OFFSET 0 22.1894 -2.19456
        CHANNELS 3 Zrotation Xrotation Yrotation
        JOINT head
        {
          OFFSET -0.24384 7.07133 1.2192
          CHANNELS 3 Zrotation Xrotation Yrotation
          JOINT leftEye
          {
            OFFSET 4.14528 8.04674 8.04672
            CHANNELS 3 Zrotation Xrotation Yrotation
            End Site
            {
              OFFSET 1 0 0
            }
          }
          JOINT rightEye
          {
            OFFSET -3.6576 8.04674 8.04672
            CHANNELS 3 Zrotation Xrotation Yrotation
            End Site
            {
              OFFSET 1 0 0
            }
          }
        }
      }
      JOINT rCollar
      {
        OFFSET -2.68224 19.2634 -4.8768
        CHANNELS 3 Zrotation Xrotation Yrotation
        JOINT rShldr
        {
          OFFSET -8.77824 -1.95073 1.46304
          CHANNELS 3 Zrotation Xrotation Yrotation
          JOINT rForeArm
          {
            OFFSET -28.1742 -1.7115 0.48768
            CHANNELS 3 Zrotation Xrotation Yrotation
            JOINT rHand
            {
              OFFSET -22.5879 0.773209 7.07136
              CHANNELS 3 Zrotation Xrotation Yrotation
              JOINT rThumb1
              {
                OFFSET -1.2192 -0.487915 3.41376
                CHANNELS 3 Zrotation Xrotation Yrotation
                JOINT rThumb2
                {
                  OFFSET -3.37035 -0.52449 3.41376
                  CHANNELS 3 Zrotation Xrotation Yrotation
                  End Site
                  {
                    OFFSET -1.78271 -1.18214 1.43049
                  }
                }
              }
              JOINT rIndex1
              {
                OFFSET -7.75947 0.938293 5.60832
                CHANNELS 3 Zrotation Xrotation Yrotation
                JOINT rIndex2
                {
                  OFFSET -2.54057 -0.884171 1.56538
                  CHANNELS 3 Zrotation Xrotation Yrotation
                  End Site
                  {
                    OFFSET -1.62519 -0.234802 1.16502
                  }
                }
              }
              JOINT rMid1
              {
                OFFSET -8.24714 1.18213 3.41376
                CHANNELS 3 Zrotation Xrotation Yrotation
                JOINT rMid2
                {
                  OFFSET -3.10165 -0.590103 1.0647
                  CHANNELS 3 Zrotation Xrotation Yrotation
                  End Site
                  {
                    OFFSET -2.48547 -0.328903 0.83742
                  }
                }
              }
              JOINT rRing1
              {
                OFFSET -8.82822 0.546677 1.51678
                CHANNELS 3 Zrotation Xrotation Yrotation
                JOINT rRing2
                {
                  OFFSET -2.60934 -0.819778 -0.0198488
                  CHANNELS 3 Zrotation Xrotation Yrotation
                  End Site
                  {
                    OFFSET -2.33842 -0.294052 0.168128
                  }
                }
              }
              JOINT rPinky1
              {
                OFFSET -8.27202 -0.0477905 -0.4584
                CHANNELS 3 Zrotation Xrotation Yrotation
                JOINT rPinky2
                {
                  OFFSET -1.82734 -0.647385 -0.700984
                  CHANNELS 3 Zrotation Xrotation Yrotation
                  End Site
                  {
                    OFFSET -1.69225 -0.51767 -0.607171
                  }
                }
              }
            }
          }
        }
      }
      JOINT lCollar
      {
        OFFSET 2.68224 19.2634 -4.8768
        CHANNELS 3 Zrotation Xrotation Yrotation
        JOINT lShldr
        {
          OFFSET 8.77824 -1.95073 1.46304
          CHANNELS 3 Zrotation Xrotation Yrotation
          JOINT lForeArm
          {
            OFFSET 28.1742 -1.7115 0.48768
            CHANNELS 3 Zrotation Xrotation Yrotation
            JOINT lHand
            {
              OFFSET 22.5879 0.773209 7.07136
              CHANNELS 3 Zrotation Xrotation Yrotation
              JOINT lThumb1
              {
                OFFSET 1.2192 -0.487915 3.41376
                CHANNELS 3 Zrotation Xrotation Yrotation
                JOINT lThumb2
                {
                  OFFSET 3.37035 -0.52449 3.41376
                  CHANNELS 3 Zrotation Xrotation Yrotation
                  End Site
                  {
                    OFFSET 1.78271 -1.18214 1.43049
                  }
                }
              }
              JOINT lIndex1
              {
                OFFSET 7.75947 0.938293 5.60832
                CHANNELS 3 Zrotation Xrotation Yrotation
                JOINT lIndex2
                {
                  OFFSET 2.54057 -0.884171 1.56538
                  CHANNELS 3 Zrotation Xrotation Yrotation
                  End Site
                  {
                    OFFSET 1.62519 -0.234802 1.16502
                  }
                }
              }
              JOINT lMid1
              {
                OFFSET 8.24714 1.18213 3.41376
                CHANNELS 3 Zrotation Xrotation Yrotation
                JOINT lMid2
                {
                  OFFSET 3.10165 -0.590103 1.0647
                  CHANNELS 3 Zrotation Xrotation Yrotation
                  End Site
                  {
                    OFFSET 2.48547 -0.328903 0.83742
                  }
                }
              }
              JOINT lRing1
              {
                OFFSET 8.82822 0.546677 1.51678
                CHANNELS 3 Zrotation Xrotation Yrotation
                JOINT lRing2
                {
                  OFFSET 2.60934 -0.819778 -0.0198488
                  CHANNELS 3 Zrotation Xrotation Yrotation
                  End Site
                  {
                    OFFSET 2.33842 -0.294052 0.168128
                  }
                }
              }
              JOINT lPinky1
              {
                OFFSET 8.27202 -0.0477905 -0.4584
                CHANNELS 3 Zrotation Xrotation Yrotation
                JOINT lPinky2
                {
                  OFFSET 1.82734 -0.647385 -0.700984
                  CHANNELS 3 Zrotation Xrotation Yrotation
                  End Site
                  {
                    OFFSET 1.69225 -0.51767 -0.607171
                  }
                }
              }
            }
          }
        }
      }
    }
  }
  JOINT rButtock
  {
    OFFSET -8.77824 4.35084 1.2192
    CHANNELS 3 Zrotation Xrotation Yrotation
    JOINT rThigh
    {
      OFFSET 0 -1.70687 -2.19456
      CHANNELS 3 Zrotation Xrotation Yrotation
      JOINT rShin
      {
        OFFSET 0 -36.8199 0.73152
        CHANNELS 3 Zrotation Xrotation Yrotation
        JOINT rFoot
        {
          OFFSET 0.73152 -45.1104 -5.12064
          CHANNELS 3 Zrotation Xrotation Yrotation
          End Site
          {
            OFFSET -1.1221 -3.69964 12.103
          }
        }
      }
    }
  }
  JOINT lButtock
  {
    OFFSET 8.77824 4.35084 1.2192
    CHANNELS 3 Zrotation Xrotation Yrotation
    JOINT lThigh
    {
      OFFSET 0 -1.70687 -2.19456
      CHANNELS 3 Zrotation Xrotation Yrotation
      JOINT lShin
      {
        OFFSET 0 -36.8199 0.73152
        CHANNELS 3 Zrotation Xrotation Yrotation
        JOINT lFoot
        {
          OFFSET -0.73152 -45.1104 -5.12064
          CHANNELS 3 Zrotation Xrotation Yrotation
          End Site
          {
            OFFSET 1.1221 -3.69964 12.103
          }
        }
      }
    }
  }
}
MOTION
Frames:	7
Frame Time:	0.00833333
11.5134 83.9739 -118.99 4.2725 7.5176 2.0978 -3.4421 10.4671 -6.66647 3.97509 -1.93964 -1.88902 0.268215 -3.78875 -1.09797 -2.10878 -8.33707 -2.43445 -0.0 0.0 0.0 -0.0 0.0 0.0 5.35325e-14 7.96159e-14 -1.42578e-13 74.3762 -18.1734 -12.2928 -6.40735 -2.22845 11.2159 -0.129299 10.2285 1.45302 -9.07194e-10 -1.05292e-09 -2.34381e-09 -1.58645e-09 -1.82905e-09 -4.04543e-09 -9.07184e-10 -1.05292e-09 -2.34382e-09 7.73091 5.47488 0.417314 -9.07195e-10 -1.05292e-09 -2.3438e-09 2.90554 0.965183 0.102902 -9.07186e-10 -1.05292e-09 -2.34381e-09 10.2786 0.731801 0.0259123 -9.07196e-10 -1.05292e-09 -2.3438e-09 2.22167 -0.733487 -0.20892 5.34669e-14 7.96103e-14 -1.42727e-13 -76.1197 24.8721 1.15028 18.6356 -11.3862 -35.4631 0.00388788 1.81479 -0.255134 4.21009e-10 1.64008e-09 -3.78455e-10 7.30688e-10 2.83967e-09 -6.56368e-10 4.21008e-10 1.64008e-09 -3.78451e-10 -7.73091 5.47488 -0.417314 4.21011e-10 1.64008e-09 -3.78452e-10 -2.90554 0.965183 -0.102902 4.21005e-10 1.64008e-09 -3.78458e-10 -10.2786 0.731801 -0.0259123 4.21011e-10 1.64008e-09 -3.78464e-10 -2.22167 -0.733487 0.20892 -2.03217e-16 0.0 -3.88251e-19 -7.70432 -36.73 0.107973 -0.0544087 17.6851 0.056764 -4.52663 -8.97867 -17.7905 2.03217e-16 0.0 3.88251e-19 -7.85614 2.45139 -6.0715 0.0585824 13.3047 -0.141756 0.827913 -15.3842 1.13524
11.3761 83.9258 -118.509 3.9812 7.2027 2.2142 -3.51947 10.4721 -6.5321 4.16555 -1.9212 -1.85047 0.251673 -3.91098 -1.10507 -2.17142 -8.469 -2.45079 -0.0 0.0 0.0 -0.0 0.0 0.0 1.44771e-14 2.89878e-14 -1.09408e-13 73.9173 -19.0983 -12.4822 -6.28669 -2.17312 10.9994 -0.150181 10.9959 1.56475 -4.40589e-10 -6.52449e-10 -9.41626e-10 -7.69227e-10 -1.13133e-09 -1.62452e-09 -4.40583e-10 -6.52447e-10 -9.41636e-10 7.73091 5.47488 0.417314 -4.40589e-10 -6.52449e-10 -9.41621e-10 2.90554 0.965183 0.102902 -4.40579e-10 -6.52448e-10 -9.41626e-10 10.2786 0.731801 0.0259123 -4.40591e-10 -6.52446e-10 -9.41621e-10 2.22167 -0.733487 -0.20892 1.43414e-14 2.8982e-14 -1.09621e-13 -76.4297 24.8933 1.28749 18.5486 -11.2883 -35.2641 0.00535065 2.10623 -0.296144 2.03199e-10 7.20941e-10 -1.64234e-10 3.5203e-10 1.24789e-09 -2.84636e-10 2.03194e-10 7.20946e-10 -1.64229e-10 -7.73091 5.47488 -0.417314 2.03199e-10 7.20941e-10 -1.64234e-10 -2.90554 0.965183 -0.102902 2.03192e-10 7.20939e-10 -1.64239e-10 -10.2786 0.731801 -0.0259123 2.03201e-10 7.20939e-10 -1.64244e-10 -2.22167 -0.733487 0.20892 -2.03217e-16 0.0 -3.88251e-19 -7.87744 -36.9566 0.113624 -0.0527436 17.2317 0.051666 -4.7011 -9.2783 -18.1603 2.03217e-16 0.0 3.88251e-19 -7.87451 2.89961 -6.08021 0.0549942 12.8278 -0.132912 0.861419 -15.3781 1.23818
11.3808 83.8583 -117.959 4.1656 7.1634 2.3912 -3.55441 10.493 -6.40074 4.32704 -1.93903 -1.81065 0.235594 -3.98563 -1.12933 -2.24622 -8.57085 -2.50171 -0.0 0.0 0.0 -0.0 0.0 0.0 -1.35333e-14 -1.11298e-14 -8.75149e-14 73.4627 -19.9701 -12.6994 -6.16776 -2.11907 10.7862 -0.171595 11.7236 1.67127 -9.39361e-11 -4.27717e-10 2.42263e-10 -1.60083e-10 -7.37905e-10 4.19622e-10 -9.39321e-11 -4.27716e-10 2.42253e-10 7.73091 5.47488 0.417314 -9.39353e-11 -4.27719e-10 2.42269e-10 2.90554 0.965183 0.102902 -9.39255e-11 -4.27718e-10 2.42264e-10 10.2786 0.731801 0.0259123 -9.39385e-11 -4.27715e-10 2.42269e-10 2.22167 -0.733487 -0.20892 -1.37011e-14 -1.1135e-14 -8.77634e-14 -76.7483 24.8947 1.44792 18.444 -11.1721 -35.0239 0.00691055 2.37287 -0.333677 3.73874e-11 -8.66065e-12 -6.10762e-11 6.35825e-11 -1.57119e-11 -1.05495e-10 3.73803e-11 -8.65667e-12 -6.10698e-11 -7.73091 5.47488 -0.417314 3.73868e-11 -8.66274e-12 -6.10762e-11 -2.90554 0.965183 -0.102902 3.73799e-11 -8.66333e-12 -6.1081e-11 -10.2786 0.731801 -0.0259123 3.73902e-11 -8.66264e-12 -6.10857e-11 -2.22167 -0.733487 0.20892 -2.03217e-16 0.0 -3.88251e-19 -8.02174 -37.1612 0.0454191 -0.0519382 16.929 0.0475844 -4.80437 -9.38055 -18.4582 2.03217e-16 0.0 3.88251e-19 -7.87225 3.33654 -6.09959 0.0518501 12.4184 -0.126511 0.893201 -15.3416 1.33669
11.3294 83.8234 -117.457 4.1352 7.1472 2.4842 -3.54271 10.5312 -6.25933 4.45696 -2.01773 -1.76481 0.219384 -3.97706 -1.18585 -2.34216 -8.62928 -2.61735 -0.0 0.0 0.0 -0.0 0.0 0.0 -3.03806e-14 -3.85134e-14 -9.17449e-14 73.0021 -20.7731 -12.9719 -6.04279 -2.063 10.5623 -0.192757 12.4113 1.77236 1.33388e-10 -4.93126e-10 1.21398e-09 2.42744e-10 -8.46487e-10 2.09719e-09 1.33394e-10 -4.93126e-10 1.21397e-09 7.73091 5.47488 0.417314 1.33389e-10 -4.93128e-10 1.21398e-09 2.90554 0.965183 0.102902 1.33398e-10 -4.93127e-10 1.21398e-09 10.2786 0.731801 0.0259123 1.33385e-10 -4.93124e-10 1.21398e-09 2.22167 -0.733487 -0.20892 -3.05201e-14 -3.85163e-14 -9.19826e-14 -77.092 24.8758 1.6567 18.3183 -11.0333 -34.737 0.00835997 2.60023 -0.365694 3.42178e-12 -4.43582e-10 -1.33319e-10 3.32327e-12 -7.69424e-10 -2.30886e-10 3.41098e-12 -4.43581e-10 -1.33311e-10 -7.73091 5.47488 -0.417314 3.41888e-12 -4.43586e-10 -1.33317e-10 -2.90554 0.965183 -0.102902 3.41399e-12 -4.43585e-10 -1.33321e-10 -10.2786 0.731801 -0.0259123 3.4248e-12 -4.43584e-10 -1.33326e-10 -2.22167 -0.733487 0.20892 -2.03217e-16 0.0 -3.88251e-19 -8.11965 -37.3529 -0.107785 -0.0521259 16.8198 0.0447125 -4.81518 -9.21124 -18.7005 2.03217e-16 0.0 3.88251e-19 -7.84219 3.76143 -6.12163 0.0491863 12.0842 -0.123188 0.924224 -15.2709 1.43395
11.3758 83.7978 -116.846 4.3794 7.1057 2.531 -3.50348 10.5894 -6.10414 4.5723 -2.14117 -1.71284 0.206336 -3.92042 -1.26726 -2.46772 -8.65302 -2.78494 -0.0 0.0 0.0 -0.0 0.0 0.0 -4.46685e-14 -6.14248e-14 -1.12745e-13 72.5254 -21.554 -13.2798 -5.91383 -2.00578 10.3314 -0.214508 13.0844 1.87182 3.34701e-10 -7.51255e-10 2.12946e-09 6.0132e-10 -1.28825e-09 3.6773e-09 3.34711e-10 -7.51253e-10 2.12946e-09 7.73091 5.47488 0.417314 3.34701e-10 -7.51257e-10 2.12947e-09 2.90554 0.965183 0.102902 3.34708e-10 -7.51256e-10 2.12947e-09 10.2786 0.731801 0.0259123 3.34695e-10 -7.51253e-10 2.12948e-09 2.22167 -0.733487 -0.20892 -4.4744e-14 -6.14242e-14 -1.12944e-13 -77.4584 24.8462 1.89337 18.1745 -10.8755 -34.4124 0.00976043 2.80775 -0.394927 7.15237e-11 -6.96245e-10 -3.12582e-10 1.19528e-10 -1.20792e-09 -5.42176e-10 7.15086e-11 -6.96248e-10 -3.12572e-10 -7.73091 5.47488 -0.417314 7.15179e-11 -6.96252e-10 -3.12575e-10 -2.90554 0.965183 -0.102902 7.15163e-11 -6.96248e-10 -3.12579e-10 -10.2786 0.731801 -0.0259123 7.1527e-11 -6.96248e-10 -3.12583e-10 -2.22167 -0.733487 0.20892 -2.03217e-16 0.0 -3.88251e-19 -8.20407 -37.539 -0.377187 -0.0533146 16.8948 0.0439013 -4.75504 -8.85735 -18.878 2.03217e-16 0.0 3.88251e-19 -7.79605 4.17072 -6.14829 0.0467111 11.8155 -0.122566 0.953488 -15.1868 1.52607
11.3425 83.7056 -116.365 4.3724 6.9904 2.7498 -3.43229 10.6622 -5.96727 4.66646 -2.26609 -1.66553 0.195482 -3.86953 -1.34511 -2.59641 -8.66543 -2.94623 -0.0 0.0 0.0 -0.0 0.0 0.0 -5.02097e-14 -7.86707e-14 -1.24124e-13 72.061 -22.3116 -13.5759 -5.79694 -1.95425 10.1225 -0.236495 13.7252 1.96703 4.38612e-10 -1.01777e-09 2.85801e-09 7.90129e-10 -1.74499e-09 4.93519e-09 4.38627e-10 -1.01777e-09 2.858e-09 7.73091 5.47488 0.417314 4.38611e-10 -1.01778e-09 2.85802e-09 2.90554 0.965183 0.102902 4.38616e-10 -1.01778e-09 2.85801e-09 10.2786 0.731801 0.0259123 4.38604e-10 -1.01777e-09 2.85802e-09 2.22167 -0.733487 -0.20892 -5.02179e-14 -7.86669e-14 -1.24284e-13 -77.8113 24.7997 2.11645 18.0161 -10.7036 -34.0569 0.011203 3.01341 -0.423905 8.4373e-11 -9.18909e-10 -5.05389e-10 1.40541e-10 -1.59406e-09 -8.76474e-10 8.43543e-11 -9.18916e-10 -5.05377e-10 -7.73091 5.47488 -0.417314 8.43647e-11 -9.18918e-10 -5.05378e-10 -2.90554 0.965183 -0.102902 8.43661e-11 -9.18912e-10 -5.05381e-10 -10.2786 0.731801 -0.0259123 8.43766e-11 -9.18911e-10 -5.05385e-10 -2.22167 -0.733487 0.20892 -2.03217e-16 0.0 -3.88251e-19 -8.29327 -37.6919 -0.716403 -0.0550516 17.0649 0.0440283 -4.64612 -8.42423 -18.9596 2.03217e-16 0.0 3.88251e-19 -7.74029 4.56868 -6.1961 0.0443081 11.6023 -0.123429 0.979077 -15.082 1.60867
11.258 83.6825 -115.77 4.2716 6.9288 2.7908 -3.3245 10.7445 -5.88086 4.73258 -2.34925 -1.63369 0.185502 -3.87816 -1.39099 -2.70185 -8.68999 -3.04299 -0.0 0.0 0.0 -0.0 0.0 0.0 -4.0817e-14 -8.90575e-14 -9.94917e-14 71.6403 -23.0459 -13.8121 -5.70834 -1.91526 9.96471 -0.258134 14.3156 2.0553 3.73733e-10 -1.10836e-09 3.26888e-09 6.83657e-10 -1.89849e-09 5.64611e-09 3.73749e-10 -1.10836e-09 3.26888e-09 7.73091 5.47488 0.417314 3.73732e-10 -1.10836e-09 3.26889e-09 2.90554 0.965183 0.102902 3.73736e-10 -1.10836e-09 3.26889e-09 10.2786 0.731801 0.0259123 3.73724e-10 -1.10836e-09 3.2689e-09 2.22167 -0.733487 -0.20892 -4.07868e-14 -8.90528e-14 -9.96408e-14 -78.1146 24.7301 2.28447 17.8467 -10.5228 -33.6772 0.0128537 3.23517 -0.455162 -1.15351e-10 -1.26383e-09 -6.18265e-10 -2.05293e-10 -2.19073e-09 -1.07089e-09 -1.15371e-10 -1.26384e-09 -6.18252e-10 -7.73091 5.47488 -0.417314 -1.1536e-10 -1.26384e-09 -6.18252e-10 -2.90554 0.965183 -0.102902 -1.15357e-10 -1.26383e-09 -6.18255e-10 -10.2786 0.731801 -0.0259123 -1.15347e-10 -1.26383e-09 -6.18258e-10 -2.22167 -0.733487 0.20892 -2.03217e-16 0.0 -3.88251e-19 -8.40384 -37.7845 -1.07803 -0.05689 17.241 0.043973 -4.51313 -8.01632 -18.9138 2.03217e-16 0.0 3.88251e-19 -7.6809 4.95955 -6.28164 0.0418913 11.4342 -0.124569 0.999075 -14.9493 1.67738
